<svg xmlns="http://www.w3.org/2000/svg" xmlns:xlink="http://www.w3.org/1999/xlink" width="500" zoomAndPan="magnify" viewBox="0 0 375 374.999991" height="500" preserveAspectRatio="xMidYMid meet" version="1.0"><defs><clipPath id="9969742258"><path d="M 130 216 L 373.324219 216 L 373.324219 374.960938 L 130 374.960938 Z M 130 216 " clip-rule="nonzero"/></clipPath><clipPath id="8f9f9a1160"><path d="M 1.324219 0 L 373.324219 0 L 373.324219 343 L 1.324219 343 Z M 1.324219 0 " clip-rule="nonzero"/></clipPath></defs><g clip-path="url(#9969742258)"><path fill="#ffc145" d="M 295.894531 269.058594 C 271.21875 301.410156 232.320312 322.335938 188.636719 322.335938 C 178.304688 322.335938 168.15625 321.230469 158.324219 318.980469 L 130.890625 365.703125 C 149.464844 371.726562 168.828125 374.789062 188.636719 374.789062 C 213.910156 374.789062 238.4375 369.839844 261.550781 360.066406 C 283.855469 350.632812 303.882812 337.136719 321.074219 319.941406 C 335.960938 305.058594 348.074219 288.046875 357.183594 269.273438 C 358.601562 266.367188 359.9375 263.386719 361.199219 260.394531 C 367.136719 246.367188 371.289062 231.816406 373.640625 216.863281 L 218.398438 216.863281 L 187.625 269.058594 Z M 295.894531 269.058594 " fill-opacity="1" fill-rule="nonzero"/></g><g clip-path="url(#8f9f9a1160)"><path fill="#ffc145" d="M 113.824219 15.75 C 90.996094 25.699219 70.652344 39.90625 53.359375 57.957031 C 50.621094 60.816406 47.9375 63.800781 45.378906 66.828125 L 45.386719 66.835938 C 44.960938 67.34375 44.53125 67.851562 44.101562 68.363281 L 114.117188 187.503906 L 75.964844 252.441406 L 7.863281 138.25 C 3.554688 154.132812 1.324219 170.671875 1.324219 187.503906 C 1.324219 206.917969 4.257812 225.90625 10.042969 244.136719 C 11.78125 249.636719 13.789062 255.066406 16.054688 260.421875 C 23.152344 277.199219 32.5625 292.6875 44.109375 306.644531 C 47.199219 310.378906 50.433594 314.015625 53.820312 317.523438 L 53.890625 317.636719 L 56.070312 319.8125 L 56.1875 319.933594 C 64.683594 328.429688 73.863281 336.011719 83.675781 342.660156 C 83.6875 342.667969 83.695312 342.667969 83.703125 342.679688 L 174.859375 187.496094 L 110.273438 77.597656 C 132.957031 61.328125 160.042969 52.527344 188.628906 52.527344 C 232.3125 52.527344 271.210938 73.582031 295.886719 105.660156 L 187.632812 105.660156 L 218.40625 158.128906 L 373.640625 158.128906 C 371.289062 143.175781 367.136719 128.632812 361.199219 114.597656 C 359.929688 111.605469 358.589844 108.644531 357.183594 105.734375 C 348.074219 86.964844 335.960938 69.941406 321.074219 55.058594 C 303.882812 37.867188 283.855469 24.363281 261.550781 14.925781 C 238.429688 5.167969 213.902344 0.210938 188.628906 0.210938 C 162.640625 0.210938 137.476562 5.4375 113.824219 15.75 Z M 113.824219 15.75 " fill-opacity="1" fill-rule="nonzero"/></g></svg>