<svg xmlns="http://www.w3.org/2000/svg" xmlns:xlink="http://www.w3.org/1999/xlink" width="348" zoomAndPan="magnify" viewBox="0 0 261 74.999997" height="100" preserveAspectRatio="xMidYMid meet" version="1.0"><defs><g/><clipPath id="7734667ab9"><path d="M 25 43 L 74.25 43 L 74.25 74.25 L 25 74.25 Z M 25 43 " clip-rule="nonzero"/></clipPath><clipPath id="6a4577a9e0"><path d="M 0 0 L 74.25 0 L 74.25 69 L 0 69 Z M 0 0 " clip-rule="nonzero"/></clipPath></defs><g clip-path="url(#7734667ab9)"><path fill="#ffc145" d="M 58.582031 53.515625 C 53.675781 59.949219 45.941406 64.113281 37.253906 64.113281 C 35.199219 64.113281 33.179688 63.890625 31.222656 63.445312 L 25.769531 72.738281 C 29.460938 73.933594 33.3125 74.542969 37.253906 74.542969 C 42.277344 74.542969 47.15625 73.558594 51.753906 71.617188 C 56.191406 69.738281 60.171875 67.054688 63.589844 63.636719 C 66.550781 60.675781 68.960938 57.292969 70.773438 53.558594 C 71.054688 52.980469 71.320312 52.386719 71.570312 51.792969 C 72.753906 49.003906 73.578125 46.109375 74.046875 43.136719 L 43.171875 43.136719 L 37.050781 53.515625 Z M 58.582031 53.515625 " fill-opacity="1" fill-rule="nonzero"/></g><g clip-path="url(#6a4577a9e0)"><path fill="#ffc145" d="M 22.375 3.136719 C 17.832031 5.117188 13.789062 7.941406 10.347656 11.53125 C 9.804688 12.101562 9.269531 12.695312 8.761719 13.296875 C 8.679688 13.398438 8.59375 13.5 8.507812 13.601562 L 22.433594 37.296875 L 14.84375 50.210938 L 1.300781 27.5 C 0.445312 30.660156 0 33.949219 0 37.296875 C 0 41.15625 0.582031 44.933594 1.734375 48.558594 C 2.078125 49.652344 2.480469 50.734375 2.929688 51.796875 C 4.339844 55.136719 6.210938 58.214844 8.507812 60.992188 C 9.125 61.734375 9.765625 62.457031 10.441406 63.15625 L 10.453125 63.175781 L 10.910156 63.632812 C 12.601562 65.324219 14.425781 66.832031 16.378906 68.152344 C 16.378906 68.15625 16.382812 68.15625 16.382812 68.15625 L 34.511719 37.296875 L 21.667969 15.4375 C 26.179688 12.203125 31.566406 10.453125 37.25 10.453125 C 45.9375 10.453125 53.675781 14.640625 58.582031 21.019531 L 37.050781 21.019531 L 43.171875 31.453125 L 74.046875 31.453125 C 73.578125 28.480469 72.753906 25.589844 71.570312 22.796875 C 71.320312 22.203125 71.054688 21.613281 70.773438 21.035156 C 68.960938 17.300781 66.550781 13.917969 63.589844 10.957031 C 60.171875 7.535156 56.191406 4.851562 51.753906 2.972656 C 47.15625 1.035156 42.277344 0.046875 37.25 0.046875 C 32.082031 0.046875 27.078125 1.085938 22.375 3.136719 Z M 22.375 3.136719 " fill-opacity="1" fill-rule="nonzero"/></g><g fill="#ffc145" fill-opacity="1"><g transform="translate(86.752827, 26.561488)"><g><path d="M 4.265625 0 L 4.265625 -7.125 L 9.828125 0 L 13.421875 0 L 7.109375 -7.953125 L 13.21875 -15.359375 L 9.6875 -15.359375 L 4.265625 -8.53125 L 4.265625 -15.359375 L 1.375 -15.359375 L 1.375 0 Z M 4.265625 0 "/></g></g></g><g fill="#ffc145" fill-opacity="1"><g transform="translate(103.71654, 26.561488)"><g><path d="M 4.265625 0 L 4.265625 -11.015625 L 10.546875 0 L 13.828125 0 L 13.828125 -15.359375 L 10.921875 -15.359375 L 10.921875 -4.359375 L 4.625 -15.359375 L 1.375 -15.359375 L 1.375 0 Z M 4.265625 0 "/></g></g></g><g fill="#ffc145" fill-opacity="1"><g transform="translate(122.390538, 26.561488)"><g><path d="M 8.234375 0.28125 C 13.328125 0.28125 15.703125 -3.4375 15.703125 -7.6875 C 15.703125 -11.9375 13.328125 -15.640625 8.234375 -15.640625 C 3.15625 -15.640625 0.78125 -11.9375 0.78125 -7.6875 C 0.78125 -3.4375 3.15625 0.28125 8.234375 0.28125 Z M 8.234375 -2.3125 C 5.4375 -2.3125 3.796875 -4.484375 3.796875 -7.6875 C 3.796875 -10.875 5.4375 -13.015625 8.234375 -13.015625 C 11.0625 -13.015625 12.671875 -10.875 12.671875 -7.6875 C 12.671875 -4.484375 11.0625 -2.3125 8.234375 -2.3125 Z M 8.234375 -2.3125 "/></g></g></g><g fill="#ffc145" fill-opacity="1"><g transform="translate(142.372413, 26.561488)"><g><path d="M 8.65625 0 L 11.1875 -11.890625 L 13.75 0 L 18.078125 0 L 22.09375 -15.359375 L 19.0625 -15.359375 L 15.90625 -2.59375 L 13.046875 -15.359375 L 9.359375 -15.359375 L 6.5 -2.609375 L 3.34375 -15.359375 L 0.296875 -15.359375 L 4.3125 0 Z M 8.65625 0 "/></g></g></g><g fill="#ffc145" fill-opacity="1"><g transform="translate(168.229627, 26.561488)"><g><path d="M 10.765625 0 L 10.765625 -2.59375 L 4.265625 -2.59375 L 4.265625 -15.359375 L 1.375 -15.359375 L 1.375 0 Z M 10.765625 0 "/></g></g></g><g fill="#ffc145" fill-opacity="1"><g transform="translate(182.698334, 26.561488)"><g><path d="M 11.609375 0 L 11.609375 -2.59375 L 4.265625 -2.59375 L 4.265625 -6.40625 L 10.84375 -6.40625 L 10.84375 -8.96875 L 4.265625 -8.96875 L 4.265625 -12.765625 L 11.609375 -12.765625 L 11.609375 -15.359375 L 1.375 -15.359375 L 1.375 0 Z M 11.609375 0 "/></g></g></g><g fill="#ffc145" fill-opacity="1"><g transform="translate(198.676116, 26.561488)"><g><path d="M 5.84375 0 C 11.015625 0 13.859375 -2.75 13.859375 -7.671875 C 13.859375 -12.59375 11.03125 -15.359375 5.84375 -15.359375 L 1.375 -15.359375 L 1.375 0 Z M 4.265625 -12.765625 L 5.8125 -12.765625 C 8.921875 -12.765625 10.96875 -11.234375 10.96875 -7.671875 C 10.96875 -3.859375 8.859375 -2.59375 5.796875 -2.59375 L 4.265625 -2.59375 Z M 4.265625 -12.765625 "/></g></g></g><g fill="#ffc145" fill-opacity="1"><g transform="translate(216.806851, 26.561488)"><g><path d="M 8.265625 0.28125 C 9.90625 0.28125 11.671875 -0.203125 12.734375 -1.734375 L 12.734375 0 L 15.375 0 L 15.375 -8.359375 L 9.09375 -8.359375 L 9.09375 -5.953125 L 12.5 -5.953125 C 12.4375 -3.546875 10.921875 -2.3125 8.515625 -2.3125 C 5.375 -2.3125 3.796875 -4.609375 3.796875 -7.703125 C 3.796875 -10.703125 5.3125 -13.046875 8.25 -13.046875 C 10.28125 -13.046875 11.546875 -12.140625 12.0625 -10.546875 L 15.234375 -10.546875 C 14.609375 -13.578125 12.234375 -15.640625 8.265625 -15.640625 C 3.125 -15.640625 0.78125 -11.875 0.78125 -7.6875 C 0.78125 -3.5 3.125 0.28125 8.265625 0.28125 Z M 8.265625 0.28125 "/></g></g></g><g fill="#ffc145" fill-opacity="1"><g transform="translate(236.768596, 26.561488)"><g><path d="M 11.609375 0 L 11.609375 -2.59375 L 4.265625 -2.59375 L 4.265625 -6.40625 L 10.84375 -6.40625 L 10.84375 -8.96875 L 4.265625 -8.96875 L 4.265625 -12.765625 L 11.609375 -12.765625 L 11.609375 -15.359375 L 1.375 -15.359375 L 1.375 0 Z M 11.609375 0 "/></g></g></g><g fill="#ffc145" fill-opacity="1"><g transform="translate(252.748911, 26.561488)"><g/></g></g><g fill="#ffc145" fill-opacity="1"><g transform="translate(85.608115, 59.6642)"><g><path d="M 6.640625 0 L 6.640625 -9.96875 L 16.90625 -9.96875 L 16.90625 0 L 21.421875 0 L 21.421875 -23.921875 L 16.90625 -23.921875 L 16.90625 -14.015625 L 6.640625 -14.015625 L 6.640625 -23.921875 L 2.125 -23.921875 L 2.125 0 Z M 6.640625 0 "/></g></g></g><g fill="#ffc145" fill-opacity="1"><g transform="translate(114.6099, 59.6642)"><g><path d="M 11.546875 0.4375 C 18.375 0.4375 21.203125 -3.265625 21.203125 -8.6875 L 21.203125 -23.921875 L 16.65625 -23.921875 L 16.65625 -8.6875 C 16.65625 -5.703125 15.390625 -3.609375 11.546875 -3.609375 C 7.6875 -3.609375 6.421875 -5.703125 6.421875 -8.6875 L 6.421875 -23.921875 L 1.875 -23.921875 L 1.875 -8.6875 C 1.875 -3.265625 4.671875 0.4375 11.546875 0.4375 Z M 11.546875 0.4375 "/></g></g></g><g fill="#ffc145" fill-opacity="1"><g transform="translate(143.141401, 59.6642)"><g><path d="M 12.015625 0 C 13.359375 0 16.40625 -0.1875 18.5 -1.875 C 19.71875 -2.921875 20.640625 -4.671875 20.640625 -6.96875 C 20.640625 -10.03125 18.9375 -12.078125 15.875 -12.578125 C 18.125 -13.171875 19.40625 -15.203125 19.40625 -17.9375 C 19.40625 -19.625 18.9375 -20.984375 17.9375 -21.984375 C 16.65625 -23.265625 14.546875 -23.921875 11.609375 -23.921875 L 2.125 -23.921875 L 2.125 0 Z M 6.640625 -19.875 L 10.59375 -19.875 C 12.265625 -19.875 13.328125 -19.625 14.015625 -19.03125 C 14.578125 -18.59375 14.859375 -17.90625 14.859375 -16.96875 C 14.859375 -15.015625 13.609375 -13.984375 11.328125 -13.984375 L 6.640625 -13.984375 Z M 6.640625 -10.3125 L 11.953125 -10.3125 C 13.828125 -10.3125 16.09375 -10.09375 16.09375 -7.3125 C 16.09375 -6.171875 15.78125 -5.453125 15.203125 -4.984375 C 14.234375 -4.140625 12.671875 -4.046875 11.453125 -4.046875 L 6.640625 -4.046875 Z M 6.640625 -10.3125 "/></g></g></g><path stroke-linecap="round" transform="matrix(0.75, 0, 0, 0.75, 170.48983, 37.76945)" fill="none" stroke-linejoin="miter" d="M 100.367734 10.937609 L 100.367734 6.468859 C 100.367734 5.286567 99.893776 4.145942 99.060442 3.3074 C 98.221901 2.468858 97.081276 2.000108 95.898984 2.000108 L 6.471893 2.000108 C 5.284393 2.000108 4.148976 2.468858 3.310435 3.3074 C 2.471893 4.145942 1.997935 5.286567 1.997935 6.468859 L 1.997935 10.937609 " stroke="#ffc145" stroke-width="4" stroke-opacity="1" stroke-miterlimit="4"/><path stroke-linecap="round" transform="matrix(0.75, 0, 0, 0.75, 170.48983, 49.86299)" fill="none" stroke-linejoin="miter" d="M 100.367734 2.000388 L 100.367734 6.255597 C 100.367734 7.385805 99.919817 8.469139 99.122942 9.266014 C 98.320859 10.062889 97.237526 10.510806 96.112526 10.510806 L 6.258352 10.510806 C 5.128143 10.510806 4.04481 10.062889 3.247935 9.266014 C 2.45106 8.469139 1.997935 7.385805 1.997935 6.255597 L 1.997935 2.000388 " stroke="#ffc145" stroke-width="4" stroke-opacity="1" stroke-miterlimit="4"/><path stroke-linecap="round" transform="matrix(-0.749989, 0.00404935, -0.00404935, -0.749989, 238.455235, 49.543646)" fill="none" stroke-linejoin="miter" d="M 2.002454 2.001327 L 76.862937 1.999259 " stroke="#ffc145" stroke-width="4" stroke-opacity="1" stroke-miterlimit="4"/></svg>