<svg xmlns="http://www.w3.org/2000/svg" xmlns:xlink="http://www.w3.org/1999/xlink" width="500" zoomAndPan="magnify" viewBox="0 0 375 374.999991" height="500" preserveAspectRatio="xMidYMid meet" version="1.0"><defs><clipPath id="4f397b666c"><path d="M 123 71.445312 L 261 71.445312 L 261 275 L 123 275 Z M 123 71.445312 " clip-rule="nonzero"/></clipPath><clipPath id="8ec331698e"><path d="M 153 229 L 256 229 L 256 303.195312 L 153 303.195312 Z M 153 229 " clip-rule="nonzero"/></clipPath></defs><rect x="-37.5" width="450" fill="#26231c" y="-37.499999" height="449.999989" fill-opacity="1"/><g clip-path="url(#4f397b666c)"><path fill="#d0cdc3" d="M 232.625 209.402344 C 235.480469 188.273438 262.902344 173.089844 245.59375 154.269531 C 245.59375 154.269531 254.242188 157.335938 253.882812 168.328125 C 253.882812 168.328125 265.863281 154.363281 257.039062 139.238281 C 261.359375 125.921875 262.402344 109.75 251.363281 98.722656 C 251.363281 98.722656 259.011719 109.867188 255.507812 120.953125 C 255.507812 120.953125 254.960938 94.742188 221.644531 90.433594 C 221.644531 90.433594 238.128906 96.296875 243.351562 111.863281 C 243.351562 111.863281 243.722656 106.304688 239.636719 100.011719 C 239.636719 100.011719 252.011719 109.691406 247.148438 128.511719 C 247.148438 128.511719 244.269531 112.1875 230.757812 104.644531 C 217.253906 97.0625 201.316406 94.089844 194.828125 83.121094 C 194.828125 83.121094 196.265625 92.394531 208.339844 98.339844 C 208.339844 98.339844 182.765625 94.089844 177.183594 71.59375 C 177.183594 71.59375 176.183594 89.15625 196.625 97.632812 C 217.070312 106.070312 221.839844 113.023438 222.746094 119.59375 C 222.746094 119.59375 224.640625 113.652344 218.429688 106.152344 C 218.429688 106.152344 229.863281 115.160156 230.128906 130.378906 C 230.128906 130.378906 233.367188 119.140625 226.984375 110.679688 C 226.984375 110.679688 236.527344 117.957031 234.273438 130.949219 C 234.273438 130.949219 245.257812 132.898438 249.667969 137.601562 C 249.667969 137.601562 232.113281 132.726562 219.054688 136.53125 C 219.054688 136.53125 225.40625 133.46875 232.289062 133.945312 C 232.289062 133.945312 215.363281 129.8125 198.253906 146.363281 C 198.253906 146.363281 206.273438 132.433594 220.402344 130.703125 C 220.402344 130.703125 225.265625 111.710938 200.597656 102.714844 C 200.597656 102.714844 208.605469 107.371094 212.390625 114.511719 C 212.390625 114.511719 204.554688 104.585938 189.964844 99.199219 C 175.382812 93.800781 173.933594 88.203125 173.128906 85.765625 C 173.128906 85.765625 171.867188 98.722656 190.867188 106.488281 C 190.867188 106.488281 169.160156 104.050781 169.347656 81.367188 C 169.347656 81.367188 159.617188 112.875 198.519531 118.644531 C 198.519531 118.644531 176.183594 119.710938 169.160156 107.464844 C 169.160156 107.464844 164.574219 123.066406 183.660156 130.4375 C 183.660156 130.4375 158.632812 128.800781 157.367188 101.425781 C 157.367188 101.425781 155.113281 108.507812 156.554688 114.265625 C 156.554688 114.265625 146.917969 98.1875 165.46875 83.421875 C 165.46875 83.421875 139.71875 96.773438 150.515625 120.722656 C 150.515625 120.722656 140.441406 109.542969 147.996094 95.484375 C 147.996094 95.484375 142.960938 101.789062 142.960938 108.300781 C 142.960938 108.300781 140.160156 90.28125 162.136719 78.941406 C 162.136719 78.941406 126.476562 83.0625 127.742188 118.910156 C 127.742188 118.910156 129.085938 108.207031 134.578125 102.53125 C 134.578125 102.53125 122.421875 127.464844 154.488281 144.9375 C 154.488281 144.9375 117.199219 140.605469 126.742188 102.261719 C 126.742188 102.261719 109.085938 138.84375 150.84375 145.867188 L 150.84375 145.890625 C 150.84375 145.890625 145.09375 151.75 145.269531 159.738281 C 145.269531 159.738281 147.554688 150.859375 155.230469 146.480469 C 157.039062 146.667969 158.945312 146.816406 160.964844 146.898438 C 160.964844 146.898438 146.464844 139.714844 141.519531 126.039062 C 141.519531 126.039062 153.488281 146.191406 177.089844 141.882812 C 177.089844 141.882812 161.964844 139.980469 152.59375 129.183594 C 152.59375 129.183594 176.089844 145.925781 201.039062 133.945312 C 201.039062 133.945312 194.5625 138.726562 191.589844 147.375 C 191.589844 147.375 196.894531 139.714844 202.210938 137.089844 C 202.210938 137.089844 195.453125 143.394531 193.828125 150.53125 C 193.828125 150.53125 212.660156 145.832031 227.878906 154.386719 C 227.878906 154.386719 214.273438 149.523438 202.835938 152.214844 C 202.835938 152.214844 206.957031 157.453125 209.652344 164.972656 L 178.726562 164.730469 C 178.726562 164.730469 161.535156 157.417969 151.257812 165.507812 C 146.742188 168.628906 141.785156 159.855469 136.679688 166.332031 C 134.855469 168.652344 132.847656 183.339844 146.394531 183.78125 C 146.394531 183.78125 144.957031 188.121094 143.25 188.75 C 143.25 188.75 150.179688 187.679688 149.644531 172.367188 C 149.644531 172.367188 151.816406 170.347656 152.257812 173.296875 C 156.273438 200.84375 181.511719 188.980469 179.757812 171.359375 L 211.347656 171.070312 C 212.578125 177.476562 212.207031 184.789062 207.886719 191.742188 C 207.886719 191.742188 213.472656 185.359375 213.644531 179.414062 C 213.644531 179.414062 219.402344 211.039062 190.777344 199.683594 C 190.777344 199.683594 194.109375 203.457031 199.957031 205.269531 C 199.957031 205.269531 190.683594 205.269531 187.164062 196.980469 C 187.164062 196.980469 187.710938 202.121094 190.230469 205.359375 C 192.75 208.601562 191.9375 215.34375 184.648438 214.984375 C 184.648438 214.984375 194.910156 218.492188 195.640625 227.230469 C 195.640625 227.230469 193.875 222.03125 188.339844 219.859375 C 188.339844 219.859375 197.441406 226.246094 193.46875 235.878906 C 193.46875 235.878906 194.734375 224.167969 182.753906 219.59375 C 182.753906 219.59375 186.445312 222.65625 188.699219 226.339844 C 188.699219 226.339844 182.941406 217.957031 170.332031 217.78125 C 170.332031 217.78125 180.78125 221.195312 173.210938 235.253906 C 173.210938 235.253906 178.796875 228.449219 177.761719 222.65625 C 177.761719 222.65625 181.269531 235.042969 167.675781 240.164062 C 167.675781 240.164062 175.09375 231.921875 172.710938 224.851562 C 172.710938 224.851562 172.804688 228 171.992188 230.261719 C 171.992188 230.261719 173.304688 222.679688 168.117188 219.628906 C 168.117188 219.628906 174.558594 231.574219 156.148438 230.378906 C 156.148438 230.378906 163.9375 229.820312 166.363281 225.570312 C 166.363281 225.570312 159.792969 226.339844 156.054688 222.949219 C 152.316406 219.59375 144.621094 220.929688 145.152344 227.5 C 145.152344 227.5 143.402344 222.507812 147.5 220.21875 C 147.5 220.21875 141.148438 215.667969 144.304688 210.410156 C 147.453125 205.152344 153.710938 207.019531 156.773438 209.992188 C 159.839844 212.964844 169.113281 218.28125 178.066406 212.257812 C 178.066406 212.257812 174.105469 213.5 169.742188 212.429688 C 169.742188 212.429688 187.433594 213.207031 184.367188 197.421875 C 184.367188 197.421875 182.800781 209.515625 167.582031 206.578125 C 167.582031 206.578125 174.699219 206.546875 178.109375 202.980469 C 178.109375 202.980469 169.242188 206.105469 161.953125 197.535156 C 161.953125 197.535156 162.855469 200.484375 164.609375 202.597656 C 164.609375 202.597656 159.699219 200.84375 158.980469 196.5625 C 158.980469 196.5625 158.792969 189.246094 151.597656 190.617188 C 151.597656 190.617188 156.136719 191.742188 155.054688 194.984375 C 155.054688 194.984375 149.703125 191.300781 146.011719 194.542969 C 146.011719 194.542969 147.183594 191.929688 148.53125 191.59375 C 148.53125 191.59375 146.40625 192.105469 144.375 194.160156 C 142.238281 192.671875 142.4375 190.292969 142.4375 190.292969 C 140.476562 192.753906 142.996094 195.875 142.996094 195.875 C 142.320312 196.921875 141.730469 198.164062 141.324219 199.707031 C 141.324219 199.707031 142.855469 197.78125 143.679688 197.246094 C 143.679688 197.246094 144.039062 205.152344 134.9375 203.515625 C 134.9375 203.515625 136.945312 205.894531 140.488281 205.710938 C 140.488281 205.710938 135.621094 208.007812 132.824219 203.933594 C 132.824219 203.933594 133.613281 210.792969 141.71875 211.1875 C 141.71875 211.1875 143.75 231.839844 131.222656 237.867188 C 131.222656 237.867188 138.070312 237.808594 141.183594 231.421875 C 141.183594 231.421875 139.765625 242.394531 131.140625 244.34375 C 131.140625 244.34375 135.148438 245.898438 139.511719 243.21875 C 139.511719 243.21875 129.921875 261.792969 154.953125 274.132812 C 154.953125 274.132812 142.609375 260.132812 150.179688 245.296875 C 150.179688 245.296875 142.53125 268.1875 168.824219 274.839844 C 168.824219 274.839844 176.394531 264.761719 169.089844 251.957031 C 169.089844 251.957031 178.992188 262.242188 172.328125 273.863281 C 172.328125 273.863281 196.382812 267.527344 200.339844 235.84375 C 200.339844 235.84375 200.339844 249.695312 196.558594 256.914062 C 196.558594 256.914062 221.214844 242.800781 216.464844 214.425781 C 216.464844 214.425781 220.15625 226.664062 217.90625 235.496094 C 217.90625 235.496094 227.355469 224.945312 222.132812 204.410156 C 216.90625 183.894531 219.613281 170.464844 224.023438 166.609375 C 224.023438 166.609375 219.796875 168.746094 218.078125 173.703125 C 220.609375 154.269531 247.484375 156.558594 240.820312 175.992188 C 236.015625 190.027344 231.1875 192.21875 232.625 209.402344 " fill-opacity="1" fill-rule="evenodd"/></g><g clip-path="url(#8ec331698e)"><path fill="#d0cdc3" d="M 235.320312 236.914062 C 235.320312 236.914062 236.78125 246.699219 193.933594 265.089844 C 193.933594 265.089844 188.640625 271.300781 187.175781 278.589844 L 180.640625 278.589844 L 186.191406 275.792969 C 186.191406 275.792969 187.050781 270.324219 190.636719 265.773438 C 191.207031 265.179688 191.761719 264.589844 192.308594 263.9375 C 193.308594 262.988281 194.457031 262.117188 195.78125 261.429688 C 203.777344 257.277344 236.191406 244.167969 233.148438 234.394531 C 233.148438 234.394531 236.980469 223.425781 244.386719 233.859375 L 248.75 254.363281 L 255.03125 255.765625 C 255.03125 255.765625 247.230469 283.070312 225.671875 302.898438 C 225.671875 302.898438 246.171875 276.058594 248.820312 258.191406 C 248.820312 258.191406 239.824219 271.960938 222.898438 282.421875 C 222.898438 282.421875 238.765625 268.511719 243.921875 258.460938 C 243.921875 258.460938 235.726562 267.851562 228.320312 270.894531 C 228.320312 270.894531 238.894531 261.640625 243.652344 254.746094 C 243.652344 254.746094 234.402344 263.101562 228.851562 265.484375 C 228.851562 265.484375 236.386719 258.078125 238.5 255.289062 C 238.5 255.289062 232.058594 261.164062 226.367188 264.078125 C 226.367188 264.078125 235.167969 256.300781 239.589844 250.320312 C 239.589844 250.320312 229.875 257.601562 222.539062 261.429688 C 222.539062 261.429688 231.394531 253.828125 235.367188 249.730469 C 235.367188 249.730469 225.507812 256.53125 218.894531 259.121094 C 218.894531 259.121094 235.886719 247.824219 241.449219 238.285156 C 241.449219 238.285156 242.0625 234.128906 238.40625 232.816406 C 234.75 231.480469 235.320312 236.914062 235.320312 236.914062 Z M 178.320312 283.71875 L 189.625 284.058594 C 189.625 284.058594 205.832031 275.675781 215.085938 275.792969 C 215.085938 275.792969 205.042969 274.480469 196.3125 278.4375 C 196.3125 278.4375 206.761719 270.058594 213.703125 268.398438 C 213.703125 268.398438 199.550781 270.972656 191.34375 278.378906 C 191.34375 278.378906 196.371094 264.136719 217.535156 263.8125 C 217.535156 263.8125 225.335938 288.480469 213.703125 303.699219 C 213.703125 303.699219 200.285156 298.046875 187.78125 287.296875 L 179.839844 287.828125 C 179.839844 287.828125 170.589844 300.007812 157.226562 300.519531 C 157.226562 300.519531 152.816406 286.992188 153.617188 276.058594 C 153.675781 276.09375 165.699219 277.601562 171.808594 280.398438 C 171.808594 280.398438 167.28125 279.867188 165.328125 280.097656 C 165.328125 280.097656 175.523438 281.585938 178.320312 283.71875 " fill-opacity="1" fill-rule="evenodd"/></g></svg>